<svg version="1.1" preserveAspectRatio="none" xmlns="http://www.w3.org/2000/svg" width="500" height="500" viewBox="0 0 500 500"><rect width="100%" height="100%" fill="#F9F9F9" fill-opacity="1"/><svg viewBox="231.7924 815.9717 271.4939 285.7469" width="316.39002452870005" height="333" x="91.805px" y="83.5px" xmlns="http://www.w3.org/2000/svg" xmlns:xlink="http://www.w3.org/1999/xlink" preserveAspectRatio="none"><defs></defs><style>.companyName {fill:#F3A7DC;fill-opacity:1;}.icon1 {fill:#DBDBDB;fill-opacity:1;}.icon2 {fill:#F3A7DC;fill-opacity:1;}.icon3 {fill:#E7E7E7;fill-opacity:1;}.icon3-str {stroke:#E7E7E7;stroke-opacity:1;}</style><g opacity="1" transform="rotate(0 231.7924 981.7186)">
<svg width="271.4939" height="120" x="231.7924" y="981.7186" version="1.1" preserveAspectRatio="none" viewBox="2.24 -28.48 65.52000000000001 28.96">
  <g transform="matrix(1 0 0 1 0 0)" class="companyName"><path id="id-D6z1nYkh3" d="M12.60-0.60Q15.20-0.60 16.64-1.60Q18.08-2.60 18.08-4.48L18.08-4.48Q18.08-6 17.42-7Q16.76-8 15.40-8.84Q14.04-9.68 11.40-10.84L11.40-10.84Q8.04-12.32 6.20-13.46Q4.36-14.60 3.30-16.34Q2.24-18.08 2.24-20.76L2.24-20.76Q2.24-24.60 4.96-26.54Q7.68-28.48 13.60-28.48L13.60-28.48Q16.24-28.48 18.70-27.96Q21.16-27.44 22.84-26.64L22.84-26.64L21.88-20.52L20.80-20.52Q20.04-22.96 19.22-24.40Q18.40-25.84 17-26.62Q15.60-27.40 13.28-27.40L13.28-27.40Q8-27.40 8-23.96L8-23.96Q8-22.56 8.64-21.64Q9.28-20.72 10.56-19.98Q11.84-19.24 14.80-17.80L14.80-17.80L15.60-17.44Q19.32-15.64 21.10-14.52Q22.88-13.40 23.92-11.74Q24.96-10.08 24.96-7.44L24.96-7.44Q24.96-3.52 22.02-1.52Q19.08 0.48 12.80 0.48L12.80 0.48Q10.28 0.48 7.22-0.08Q4.16-0.64 2.48-1.44L2.48-1.44L3.56-8.48L4.60-8.48Q5.12-5.36 6.16-3.64Q7.20-1.92 8.76-1.26Q10.32-0.60 12.60-0.60L12.60-0.60Z M30.76-26Q30.76-26.44 30.58-26.60Q30.40-26.76 29.80-26.88L29.80-26.88L28.32-27.20L28.32-28L41.36-28L41.36-27.20L39.88-26.88Q39.28-26.76 39.10-26.60Q38.92-26.44 38.92-26L38.92-26L38.92-2Q38.92-1.56 39.10-1.40Q39.28-1.24 39.88-1.12L39.88-1.12L41.36-0.80L41.36 0L28.32 0L28.32-0.80L29.80-1.12Q30.40-1.24 30.58-1.40Q30.76-1.56 30.76-2L30.76-2L30.76-26Z M46.04-26Q46.04-26.44 45.86-26.60Q45.68-26.76 45.08-26.88L45.08-26.88L43.60-27.20L43.60-28L56.88-28L56.88-27.20L55.16-26.84Q54.56-26.72 54.38-26.56Q54.20-26.40 54.20-25.96L54.20-25.96L54.20-1.20L59.24-1.20Q61.60-1.20 62.92-1.92Q64.24-2.64 64.98-3.96Q65.72-5.28 66.64-7.96L66.64-7.96L67.76-7.96L67.76 0L43.60 0L43.60-0.80L45.08-1.12Q45.68-1.24 45.86-1.40Q46.04-1.56 46.04-2L46.04-2L46.04-26Z"/></g>
</svg>
</g><g opacity="1" transform="rotate(0 299.6659 815.9717)">
<svg width="135.7469" height="135.7469" x="299.6659" y="815.9717" version="1.1" preserveAspectRatio="none" viewBox="20 20 160 160">
  <g transform="matrix(1 0 0 1 0 0)"><g><path d="M135.5 20v44.5H180L135.5 20z" data-color="1" class="icon1"></path><path d="M53.2 89.9L20 56.7V180h123.3l-33.2-33.2H53.2V89.9z" data-color="2" class="icon2"></path><path d="M53.2 23.6V90l56.9 56.9h66.4L53.2 23.6z" data-color="1" class="icon1"></path><path d="M53.2 146.8h56.9L53.2 89.9v56.9z" data-color="3" class="icon3"></path></g></g>
</svg>
</g></svg></svg>